/* XPM */
static char *_23cbfe434134ddcefcaab98743592a1HvtdI7K3Kw9o81qm[] = {
/* columns rows colors chars-per-pixel */
"144 47 223 2 ",
"   c #000000",
".  c #0B0100",
"X  c #0B0C00",
"o  c #00000D",
"O  c #150000",
"+  c #1B0000",
"@  c #140800",
"#  c #1B0E00",
"$  c #000014",
"%  c #0C0015",
"&  c #00001A",
"*  c #0B001A",
"=  c #1D0015",
"-  c #1D001A",
";  c #1B1012",
":  c #230000",
">  c #2E0000",
",  c #370004",
"<  c #241400",
"1  c #26001B",
"2  c #39001B",
"3  c #12291B",
"4  c #29231E",
"5  c #000023",
"6  c #070023",
"7  c #1A0023",
"8  c #1B0E23",
"9  c #19032B",
"0  c #001329",
"q  c #1A102D",
"w  c #030035",
"e  c #00013C",
"r  c #150038",
"t  c #1A1032",
"y  c #220020",
"u  c #2D0134",
"i  c #430100",
"p  c #4B0003",
"a  c #570000",
"s  c #44021C",
"d  c #58001F",
"f  c #640000",
"g  c #6A0205",
"h  c #720003",
"j  c #7E0200",
"k  c #7E020B",
"l  c #690015",
"z  c #63011B",
"x  c #760216",
"c  c #7B0115",
"v  c #4E0030",
"b  c #720025",
"n  c #5F2935",
"m  c #602F3D",
"M  c #000148",
"N  c #170149",
"B  c #000053",
"V  c #00005B",
"C  c #150354",
"Z  c #292243",
"A  c #203545",
"S  c #2A245B",
"D  c #000165",
"F  c #00006C",
"G  c #0C0369",
"H  c #180569",
"J  c #000073",
"K  c #0D0370",
"L  c #190578",
"P  c #1F1870",
"I  c #3F086C",
"U  c #5D0048",
"Y  c #70014C",
"T  c #780155",
"R  c #4D046F",
"E  c #710068",
"W  c #670179",
"Q  c #740177",
"!  c #800100",
"~  c #8C0100",
"^  c #8D020A",
"/  c #920000",
"(  c #9A0000",
")  c #94030D",
"_  c #850114",
"`  c #8C0113",
"'  c #930115",
"]  c #9C0011",
"[  c #A50000",
"{  c #A90000",
"}  c #A3000B",
"|  c #AA000E",
" . c #B50000",
".. c #BB0001",
"X. c #B5000E",
"o. c #BA010B",
"O. c #B90B0B",
"+. c #A20011",
"@. c #AF001B",
"#. c #B40011",
"$. c #B90011",
"%. c #B9001B",
"&. c #930833",
"*. c #B6002D",
"=. c #AD0337",
"-. c #B3003C",
";. c #C50102",
":. c #CB0001",
">. c #C6010C",
",. c #CC000B",
"<. c #D50002",
"1. c #DB0002",
"2. c #D50009",
"3. c #DA0109",
"4. c #D2080B",
"5. c #C20011",
"6. c #CB0A15",
"7. c #D50015",
"8. c #E20001",
"9. c #ED0001",
"0. c #E20309",
"q. c #E8090C",
"w. c #F30000",
"e. c #FB0001",
"r. c #F60807",
"t. c #FF0009",
"y. c #F40B0B",
"u. c #FA0B0A",
"i. c #F31515",
"p. c #FA1414",
"a. c #F31919",
"s. c #C20726",
"d. c #F32424",
"f. c #F32B2B",
"g. c #F23233",
"h. c #F13A3A",
"j. c #98024B",
"k. c #840053",
"l. c #940059",
"z. c #A40043",
"x. c #870063",
"c. c #F44848",
"v. c #F55B5B",
"b. c #F56767",
"n. c #F57070",
"m. c #F67C7C",
"M. c #000083",
"N. c #090287",
"B. c #140083",
"V. c #19018D",
"C. c #001881",
"Z. c #000195",
"A. c #0D0095",
"S. c #06039A",
"D. c #00009C",
"F. c #170299",
"G. c #13019C",
"H. c #300091",
"J. c #360397",
"K. c #211B99",
"L. c #27279B",
"P. c #0100A3",
"I. c #0A00A2",
"U. c #0600AE",
"Y. c #1204A4",
"T. c #0500B4",
"R. c #0C01B3",
"E. c #0100BE",
"W. c #0B01BD",
"Q. c #1211B5",
"!. c #1310BA",
"~. c #2D0DAE",
"^. c #4C028C",
"/. c #5E0186",
"(. c #470099",
"). c #670181",
"_. c #4200A6",
"`. c #0100C1",
"'. c #0D01C3",
"]. c #0101CD",
"[. c #0A00CE",
"{. c #1111C5",
"}. c #0801D1",
"|. c #0101DB",
" X c #0901DB",
".X c #1F03DA",
"XX c #290FC4",
"oX c #2502C9",
"OX c #2A28DB",
"+X c #0100E4",
"@X c #0901E2",
"#X c #0F0FE6",
"$X c #0200EB",
"%X c #0E0DEE",
"&X c #0E14E9",
"*X c #1514E8",
"=X c #0200F3",
"-X c #0D0CF1",
";X c #0100FA",
":X c #0000FC",
">X c blue",
",X c #0201FE",
"<X c #0900FF",
"1X c #0B0BFF",
"2X c #1B1BF4",
"3X c #1414F9",
"4X c #2A2BF1",
"5X c #F68383",
"6X c #F78D8D",
"7X c #F79291",
"8X c #F89C9C",
"9X c #F8A3A3",
"0X c #F9ADAD",
"qX c #F9AFB0",
"wX c #FAB8B8",
"eX c #FAC4C4",
"rX c #FBCDCD",
"tX c #FBCFD0",
"yX c #FBD5D5",
"uX c #FCDADA",
"iX c #FDECEC",
"pX c #FEF3F3",
"aX c #FFFEFE",
/* pixels */
">X>X>X>X>X>X>X>X>X>X>X>X>X>X>X>X>X>X>X>X>X>X>X>X>X>X>X>X>X>X>X>X>X>X>X>X>X>X>X>X>X>X>X>X>X>X>X>X>X>X>X>X>X>X>X>X>X>X>X>X>X>X>X>X>X>X>X>X>X>X>X>X>X>X>X>X>X>X>X>X>X>X>X>X>X>X>X>X>X>X>X>X>X>X>X>X>X>X>X>X>X>X>X>X>X>X>X>X>X>X>X>X>X>X>X>X>X>X>X>X>X>X>X>X>X>X>X>X>X>X>X>X>X>X>X>X>X>X>X>X>X>X>X>X",
">X>X>X>X>X>X>X>X>X>X>X>X>X>X>X>X>X>X>X>X>X>X>X>X>X>X>X>X>X>X>X>X>X>X>X>X>X>X>X>X>X>X>X>X>X>X>X>X>X>X>X>X>X>X>X>X>X>X>X>X>X>X>X>X>X>X>X>X>X>X>X>X>X>X>X>X>X>X>X>X>X>X>X>X>X>X>X>X>X>X>X>X>X>X>X>X>X>X>X>X>X>X>X>X>X>X>X>X>X>X>X>X>X>X>X>X>X>X>X>X>X>X>X>X>X>X>X>X>X>X>X>X>X>X>X>X>X>X>X>X>X>X>X>X",
">X>X>X>X>X>X>X>X>X>X>X>X>X>X>X>X>X>X>X>X>X>X>X>X>X>X>X>X>X>X>X>X>X>X>X>X>X>X>X>X>X>X>X>X>X>X>X>X>X>X>X>X>X>X>X>X>X>X>X>X>X>X>X>X>X>X>X>X>X>X>X>X>X>X>X>X>X>X>X>X>X>X>X>X>X>X>X>X>X>X>X>X>X>X>X>X>X>X>X>X>X>X>X>X>X>X>X>X>X>X>X>X>X>X>X>X>X>X>X>X>X>X>X>X>X>X>X>X>X>X>X>X>X>X>X>X>X>X>X>X>X>X>X>X",
">X>X>X>X>X>X>X>X>X>X>X>X>X>X>X>X>X>X>X>X>X>X>X>X>X>X>X>X>X>X>X>X>X>X>X>X>X>X>X>X>X>X>X>X>X>X>X>X>X>X>X>X>X>X>X>X>X>X>X>X>X>X>X>X>X>X>X>X>X>X>X>X>X>X>X>X>X>X>X>X>X>X>X>X>X>X>X>X>X>X>X>X>X>X>X>X>X>X>X>X>X>X>X>X>X>X>X>X>X>X>X>X>X>X>X>X>X>X>X>X>X>X>X>X>X>X>X>X>X>X>X>X>X>X>X>X>X>X>X>X>X>X>X>X",
">X>X>X>X>X>X>X>X>X;X>X>X>X;X>X>X;X>X>X>X>X>X>X>X>X>X>X>X>X;X;X>X>X>X>X;X;X>X;X>X>X>X>X>X>X>X>X>X>X>X>X>X>X>X>X>X>X>X>X;X>X;X>X>X;X>X>X>X>X>X>X>X>X>X>X>X;X>X;X>X>X>X>X;X;X>X>X>X>X>X>X>X>X>X>X>X>X>X>X>X>X>X>X>X>X>X>X>X>X;X>X>X;X;X>X>X>X>X>X>X>X>X>X>X>X;X>X>X>X>X>X;X>X;X>X>X>X>X>X>X>X>X>X>X",
">X>X>X>X>X>X>X>X>X;X>X>X>X>X>X>X>X>X>X>X>X>X>X>X>X>X>X>X>X>X>X>X>X>X>X>X>X>X>X>X>X>X>X>X>X>X>X>X>X>X>X>X>X>X>X>X>X>X>X>X>X>X>X>X>X>X>X>X>X>X>X>X>X>X>X>X>X>X>X>X>X>X>X>X>X>X>X>X>X>X>X>X>X>X>X>X>X>X>X>X>X>X>X>X>X>X>X>X>X>X>X>X>X>X>X>X>X>X>X>X>X>X>X>X>X>X>X>X>X>X>X>X>X>X>X>X>X>X>X>X>X>X>X>X",
">X>X>X>X>X>X>X>X>X].E.`.E.`.`.`.`.`.E.].>X>X>X>X>X>X>X>X].E.`.`.`.`.`.`.`.E.].>X>X>X>X>X>X>X>X>X>X>X>X>X>X>X>X;X>X+XE.`.E.`.`.`.E.`.`.E.+X>X>X>X>X>X;X>X$XE.`.E.`.`.`.`.`.`.E.$X>X>X>X>X>X>X>X>X>X>X>X>X>X>X>X>X>X|.E.`.E.`.`.`.`.`.`.E.$X>X>X>X>X>X>X>X+XE.`.E.`.`.`.`.E.`.`.=X>X>X>X>X>X>X>X>X",
">X>X>X>X>X>X>X>X>Xr O O O O O O O O O r =X>X>X>X>X>X>X>XK O O O O O O O O O C >X>X>X>X>X>X>X>X>X>X>X>X>X>X>X>X>X>XI.O O O O O O O O O O '.>X;X>X>X>X>X>X'.O O O O O O O O O O [.>X;X>X>X>X>X>X>X>X>X>X>X>X>X>X;X>XA.O O O O O O O O O O [.>X;X>X>X>X>X>XR.O O O O O O O O O O  X>X;X>X>X>X>X>X>X",
">X>X>X>X>X>X>X>X>XV   & & & & & & &   V >X>X>X>X>X>X>X>XM.  5 & & & & & &   J >X>X>X>X>X>X>X>X>X>X>X>X>X>X>X>X>X<XT.  6 & & & & & & 5   ].<X>X>X>X>X>X<X].  5 & & & & & & & & |.<X>X>X>X>X>X>X>X>X>X>X>X>X>X>X>X<XP.  5 & & & & & & & & |.<X>X>X>X>X>X<X`.  5 & & & & & & & 5 $X<X,X>X>X>X>X>X>X",
">X>X>X>X>X>XW.Z.F.=...o.O.O.O.O.O.O...=.F.Z.W.>X>X[.A.I.j.;.X...........o...z.G.Z. X>X>X>X>X>X>X>X>X>X>X>X>X+XF.P.E ..$.O.O.O.O.O.O.X...W P.G.$X1X$XG.P.W ;.X..... .......o.../.D.K.3X>X>X>X>X>X>X>X>X>X>X>X|.V.P.x...$.O.O.O.O.O.O.o.../.D.Y.=X>X$XF.P.Q ;.X...............$.^.D.W.,X>X>X>X>X>X",
">X>X>X>X>X>XN.  : 9.t.e.e.e.e.e.e.e.t.9.>   N.>X>XS..   1.t.e.e.e.e.e.e.e.t.8.+   E.>X;X>X>X>X>X>X>X>X>X,X>X].+   { t.e.e.e.e.e.e.e.e.t.(   O +X>X$X+   / t.e.e.e.e.e.e.e.e.t.!   4 2X>X>X>X>X>X>X>X>X>X>X>XE.+   ..t.e.e.e.e.e.e.e.t.e.!   O $X>X|.+   ( t.e.e.e.e.e.e.e.e.e.g   B.>X>X>X>X>X>X",
">X>X>X>X>X>XN.  - 0.w.y.g.h.h.h.h.d.w.0.y   N.>X>XU.O 5 2.w.9.w.w.w.w.w.9.w.2.5 O {.>X>X>X>X>X>X>X>X>X>X>X>X X+ & } r.9.d.h.h.h.h.g.9.e.` & q OX4XOXt $ ` e.9.w.w.w.w.w.9.9.w.x   Z 2X>X,X>X>X>X>X>X>X>X,X,X'.+ 5 X.r.9.f.h.h.h.h.g.w.w.c   r =X>X|.7 & ] e.9.w.9.w.w.w.9.w.w.z   B.<X>X>X>X>X>X",
">X>X>X{.C J -.8.3.i.i.d.uXpXiXiXpX7Xw.i.3.8.-.K J j.8.3.9.w.w.w.w.w.w.w.w.w.9.3.8.j.F H $X>X>X>X>X;X>X-XL F T 1.<.q.d.w.8XaXiXiXpXrXi.w.0.1.3.m A m 3.1.8.w.w.w.w.w.w.w.w.w.w.8.1.6.H V W.>X>X>X>X;X>X#XH J T 8.<.q.d.w.qXaXiXiXpXeXw.y.0.1.7.I F E 3.1.9.w.w.w.w.w.w.w.w.w.w.8.8.s.K V `.>X>X>X",
">X;X>XQ.@   :.t.r.w.w.w.iXaXaXaXaX9X9.a.w.t.;.    { t.w.w.w.w.w.w.w.w.w.w.w.w.w.t.[   O +X>X>X>X>X>X>X%X;   ! e.y.t.w.w.9XaXaXaXaXiXa.w.r.e.w.p   p w.w.e.w.w.w.w.w.w.w.w.w.w.w.e.8.+ . S.>X;X>X>X,X>X#X<   / t.u.w.w.w.wXaXaXaXaXuXw.y.r.w.w.>   f e.w.w.w.w.w.w.w.w.w.w.w.w.w.t.1..   U.>X;X>X",
">X>X>XQ.@ 5 >.u.9.b.m.5XiXaXiXtXuX5Xw.i.9.e.2.x l >.e.9.w.w.w.w.w.w.w.w.w.w.w.9.e.} $ 9 +X>X>X>X>X>X>X%Xt   c u.w.h.5Xn.eXaXaXuXyXwXi.w.r.9.9.) g ) w.w.w.w.w.w.w.w.w.w.w.w.w.w.e.1.y   I.>X;X>X>X,X>X#Xq $ ` u.w.c.5Xn.rXaXpXyXuXqXw.y.w.w.9.` l ] w.w.w.w.w.w.w.w.w.w.w.w.w.9.w.2.6   R.>X>X>X",
">X;X>XQ.@ & ;.p.9.rXaXaXaXaXeXw.w.w.y.w.w.w.w.e.e.w.w.w.w.w.w.w.w.w.w.w.w.w.w.w.e.}   7 +X>X;X>X>X>X>X&Xq   k p.9.5XaXaXaXaXpXc.w.w.w.w.w.w.w.e.e.r.w.w.w.w.w.w.w.w.w.w.w.w.w.w.w.8.-   I.>X>X>X>X>X>X#X;   ^ p.9.7XaXaXaXaXpXf.w.9.r.w.w.w.w.w.e.e.w.w.w.w.w.w.w.w.w.w.w.w.w.w.e.1.*   T.>X;X>X",
">X;X>XQ.@ & :.p.9.eXaXaXaXaXyXw.a.y.w.w.w.w.w.9.w.w.w.w.w.w.w.w.w.w.w.w.w.w.w.9.e.}   7 +X>X>X>X>X>X>X%Xq   k p.9.m.aXaXaXaXaXv.w.a.w.w.w.w.w.w.w.w.w.w.w.w.w.w.w.w.w.w.w.w.w.w.e.1.-   I.,X;X>X>X;X>X#X8   ^ p.9.6XaXaXaXaXaXc.w.i.w.w.w.w.w.w.w.w.w.w.w.w.w.w.w.w.w.w.w.w.w.w.w.<.*   R.>X>X>X",
">X>X>XQ.@ & ;.p.9.eXaXaXwXwX6X9.i.w.w.w.w.w.w.w.w.w.w.w.w.w.w.w.w.w.w.w.w.w.w.w.e.}   - +X>X>X>X>X>X>X-Xq   k p.w.m.aXaXuX0XwXh.w.y.w.w.w.w.w.w.w.w.w.w.w.w.w.w.w.w.w.w.w.w.w.w.w.8.-   I.>X>X>X>X>X>X#X8   ^ p.w.6XaXaXuXqX0Xf.w.y.w.w.w.w.w.w.w.w.w.w.w.w.w.w.w.w.w.w.w.w.w.9.e.<.*   T.>X>X>X",
">X;X>XQ.@ & ;.p.w.eXaXpXc.w.9.r.w.w.w.w.w.w.w.w.w.w.w.w.w.w.w.w.w.w.w.w.w.w.w.w.e.}   7 +X>X>X>X>X>X>X%Xq   k p.w.m.aXaX0Xw.w.w.r.w.w.w.w.w.w.w.w.w.w.w.w.w.w.w.w.w.w.w.w.w.w.w.w.8.1   I.>X>X>X>X>X>X#X8   ^ p.9.6XaXaX8Xw.9.w.r.w.w.w.w.w.w.w.w.w.w.w.w.w.w.w.w.w.w.w.w.w.w.w.e.<.*   R.>X;X>X",
",X,X>XQ.@ & ;.p.9.rXaXaXb.w.a.w.w.w.w.w.w.w.w.w.w.w.w.w.w.w.w.w.w.w.w.w.w.w.w.w.e.}   7 +X>X>X>X>X>X>X%Xq   k p.9.m.aXaXwXw.d.y.w.w.w.w.w.w.w.w.w.w.w.w.w.w.w.w.w.w.w.w.w.w.w.w.e.1.-   I.>X>X>X>X>X>X&X8   ^ p.w.7XaXaX9Xw.d.r.9.w.w.w.w.w.w.w.w.w.w.w.w.w.w.w.w.w.w.w.w.w.w.w.e.<.*   T.>X;X>X",
">X,X>XQ.@ 5 >.u.w.n.6X5Xg.w.r.w.w.w.w.w.w.w.w.w.w.w.w.w.w.w.w.w.w.w.w.w.w.w.w.w.e.} o 7 +X>X>X>X>X>X>X%Xt   c u.w.c.6X6Xb.w.y.w.w.w.w.w.w.w.w.w.w.w.w.w.w.w.w.w.w.w.w.w.w.w.w.w.e.1.y   I.>X;X>X>X,X>X#X8 o ` u.9.c.7X6Xv.w.i.w.w.w.w.w.w.w.w.w.w.w.w.w.w.w.w.w.w.w.w.w.w.w.w.w.w.2.*   T.,X>X>X",
">X;X,XQ.@   :.t.r.w.w.w.w.r.w.w.w.w.w.w.w.w.w.w.w.w.w.w.w.w.w.w.w.w.w.w.w.w.w.w.t.[   @ +X>X>X>X>X>X>X%X;   ! e.r.w.w.w.w.y.w.w.w.w.w.w.w.w.w.w.w.w.w.w.w.w.w.w.w.w.w.w.w.w.w.w.e.8.+   S.>X>X>X>X,X>X#X#   / t.r.w.w.w.w.y.w.w.w.w.w.w.w.w.w.w.w.w.w.w.w.w.w.w.w.w.w.w.w.w.w.w.e.1..   T.,X>X>X",
">X>X>X{.N F -.8.<.i.i.i.r.9.w.w.w.w.w.w.w.w.w.w.w.w.w.w.w.w.w.w.w.w.w.w.w.w.9.3.8.j.D H $X>X>X>X>X>X>X-XP D T 8.<.q.i.i.y.w.w.w.w.w.w.w.w.w.w.w.w.w.w.w.w.w.w.w.w.w.w.w.w.w.w.8.8.6.H B R.>X>X>X>X,X>X#XP D k.8.2.q.a.i.y.w.w.w.w.w.w.w.w.w.w.w.w.w.w.w.w.w.w.w.w.w.w.w.w.w.w.1.8.s.G B '.,X,X>X",
">X>X,X;X>X>XV.O y 0.w.9.w.w.w.w.w.w.w.w.w.w.w.w.w.w.w.w.w.w.w.w.w.w.w.w.w.w.3.7 # L.1X;X>X>X>X>X>X>X>X>X>X>X}.: & +.e.9.w.w.w.w.w.w.w.w.w.w.w.w.w.w.w.w.w.w.w.w.w.w.w.w.w.w.w.c   Z 2X>X>X>X>X>X>X>X>X>X;X>X'.: & X.e.9.w.w.w.w.w.w.w.w.w.w.w.w.w.w.w.w.w.w.w.w.w.w.w.w.w.w.w.l   S 2X;X;X,X>X>X",
">X>X>X>X>X>XK   > 9.t.w.w.w.w.w.w.w.w.w.w.w.w.w.w.w.w.w.w.w.w.w.w.w.w.w.e.t.1.O X L.1X;X>X>X>X>X>X>X>X>X>X>X].+   { t.e.w.w.w.w.w.w.w.w.w.w.w.w.w.w.w.w.w.w.w.w.w.w.w.w.e.e.e.!   4 2X>X,X>X>X>X>X>X>X>X>X>XE.+   ..t.e.w.w.w.w.w.w.w.w.w.w.w.w.w.w.w.w.w.w.w.w.w.w.w.w.e.e.e.g   Z 2X>X>X>X>X>X",
">X>X>X>X>X>XW.M.V.*.;.,.w.w.w.w.w.w.w.w.w.w.w.w.w.w.w.w.w.w.w.w.w.w.w.9.>.;.=.V.C.XX1X>X>X>X>X>X>X>X>X>X>X>X|.B.Z.x.:.5.8.w.w.w.w.w.w.w.w.w.w.w.w.w.w.w.w.w.w.w.w.w.w.w.1.o.:.W Z.K.3X;X>X>X>X>X>X>X>X>X>X>X XB.Z.l.:.5.9.w.w.w.w.w.w.w.w.w.w.w.w.w.w.w.w.w.w.w.w.w.w.w.2.;.$./.Z.K.3X>X;X>X>X>X",
">X>X>X>X>X>X>X>X>XB   l w.w.w.w.w.w.w.w.w.w.w.w.w.w.w.w.w.w.w.w.w.w.w.9.2   F >X>X>X>X>X>X>X>X>X>X>X>X>X>X>X>X>X<XT.  5 2.e.9.w.w.w.w.w.w.w.w.w.w.w.w.w.w.w.w.w.w.w.9.e.] $   |.1X>X;X>X>X>X>X>X>X>X>X>X>X>X>X>X<XP.  & 2.e.w.w.w.w.w.w.w.w.w.w.w.w.w.w.w.w.w.w.w.w.w.e.^ o 5 +X,X>X>X>X>X>X>X>X",
">X>X>X>X>X>X>X>X;XN   h e.e.w.w.w.w.w.w.w.w.w.w.w.w.w.w.w.w.w.w.w.w.e.9.p   H =X;X>X>X>X>X>X>X>X>X>X>X>X>X>X>X>X>XY.+ % <.e.w.w.w.w.w.w.w.w.w.w.w.w.w.w.w.w.w.w.w.w.w.t.[   : [.>X;X>X>X>X>X>X>X>X>X>X>X>X>X>X;X>XG.O 1 1.e.w.w.w.w.w.w.w.w.w.w.w.w.w.w.w.w.w.w.w.w.w.e.(   :  X>X,X,X>X>X>X>X>X",
">X>X>X>X>X>X>X>X>X X+XoXb g >.w.w.w.w.w.w.w.w.w.w.w.w.w.w.w.w.w.w.+.f b oX|. X>X>X>X>X>X>X>X>X>X>X>X>X>X>X>X>X;X>X$X|.|.W g ' w.w.w.w.w.w.w.w.w.w.w.w.w.w.w.w.w.e.2.z h (.+X X=X>X>X>X>X>X>X>X>X>X>X>X>X>X>X>X;X>X$X|. XE f +.e.w.w.w.w.w.w.w.w.w.w.w.w.w.w.w.w.e.,.z h _.+X X=X>X>X>X>X>X>X>X>X",
">X>X>X>X>X>X>X>X>X>X<X+Xo   ..t.w.w.w.w.w.w.w.w.w.w.w.w.w.w.w.w.t.h   & >X>X>X>X>X>X>X>X>X>X>X>X>X>X>X>X>X>X>X>X>X>X>X>XJ   g e.w.w.w.w.w.w.w.w.w.w.w.w.w.w.w.w.e.:.    T.<X>X>X>X>X>X>X>X>X>X>X>X>X>X>X>X>X>X>X;X>X>X>XF   j e.w.w.w.w.w.w.w.w.w.w.w.w.w.w.w.w.t...    `.<X>X>X>X>X>X>X>X>X>X>X",
">X>X>X>X>X>X>X>X>X>X>X@XN M *.9.8.w.w.w.w.w.w.w.w.w.w.w.w.w.w.8.w.&.M N $X>X>X>X>X>X>X>X>X>X>X>X>X>X>X>X>X>X>X>X>X>X;X>XV.e Y 9.8.9.w.w.w.w.w.w.w.w.w.w.w.w.w.0.9.s.M 7 R.>X,X>X>X>X>X>X>X>X>X>X>X>X>X>X>X>X>X>X>X>X>X>XL M Y w.8.9.w.w.w.w.w.w.w.w.w.w.w.w.w.0.9.-.B u '.>X;X>X>X>X>X>X>X>X>X>X",
">X>X>X>X>X>X>X>X>X>X>X;X=X>XJ.i s 3.w.w.w.w.w.w.w.w.w.w.w.e.,.1 i oX,X=X>X>X>X>X>X>X>X>X>X>X>X>X>X>X>X>X>X>X>X>X>X>X>X>X=X>X.Xs = +.e.9.w.w.w.w.w.w.w.w.w.w.9.l , H.=X=X;X>X>X>X>X>X>X>X>X>X>X>X>X>X>X>X>X>X>X>X>X>X>X>X=X=XoXi - | e.w.w.w.w.w.w.w.w.w.9.w.9.d , J.;X$X>X>X>X>X>X>X>X>X>X>X>X>X",
">X>X>X>X>X>X>X>X>X>X>X>X>X,XZ.    8.t.e.w.w.w.w.w.w.w.w.w.t.:.    ].>X>X>X>X>X>X>X>X>X>X>X>X>X>X>X>X>X>X>X>X>X>X>X>X>X>X>X>X|.X   ( t.e.w.w.w.w.w.w.w.w.w.e.e.a   M.,X>X>X>X>X>X>X>X>X>X>X>X>X>X>X>X>X>X>X>X>X>X>X>X>X>X>X>X].X   { t.w.w.w.w.w.w.w.w.w.w.e.w.i   Z.,X>X>X>X>X>X>X>X>X>X>X>X>X>X",
">X>X>X>X>X>X>X>X>X>X>X>X>X>XQ.G L s.<.2.w.w.w.w.w.w.w.w.2.1.=.J H  X>X>X>X>X>X>X>X>X>X>X>X>X>X>X>X>X>X>X>X>X>X>X>X>X>X>X>X>X@XH J k.1.,.9.w.w.w.w.w.w.w.8.<.4.R D Y.>X>X>X>X>X>X>X>X>X>X>X>X>X>X>X>X>X>X>X>X>X>X>X>X>X>X>X>X XH J j.<.2.9.w.w.w.w.w.w.w.1.<.6.I D R.>X>X>X>X>X>X>X>X>X>X>X>X>X>X",
">X>X>X>X>X>X>X>X>X>X>X>X>X>X>X;X>XF   s 9.w.w.w.w.9.w.8.1   C.1X>X>X>X>X>X>X>X>X>X>X>X>X>X>X>X>X>X>X>X>X>X>X>X>X>X>X>X>X>X>X>X>X<XE.  5 $.e.9.w.w.w.9.e.) & 0 &X>X>X>X>X>X>X>X>X>X>X>X>X>X>X>X>X>X>X>X>X>X>X>X>X>X>X>X>X>X>X>X>X<XT.  5 >.e.w.w.w.w.9.e._ $ 0 &X>X,X>X>X>X>X>X>X>X>X>X>X>X>X>X>X",
">X>X>X>X>X>X>X>X>X>X>X>X>X>X>X;X>XC   a w.t.w.w.w.e.t.w.,   P 1X>X>X>X>X>X>X>X>X>X>X>X>X>X>X>X>X>X>X>X>X>X>X>X>X>X>X>X>X>X>X>X;X>XR.+   ;.t.e.w.w.w.e.t.(   < *X>X,X>X>X>X>X>X>X>X>X>X>X>X>X>X>X>X>X>X>X>X>X>X>X>X>X>X>X>X>X>X;X>XI.O   <.t.e.w.w.w.e.t.~   < *X>X,X>X>X>X>X>X>X>X>X>X>X>X>X>X>X",
">X>X>X>X>X>X>X>X>X>X>X>X>X>X>X>X>XR.D.J.%. .,.e.w.>...*.F.S.!.1X;X>X>X>X>X>X>X>X>X>X>X>X>X>X>X>X>X>X>X>X>X>X>X>X>X>X>X>X>X>X>X>X>X|.A.P.l...$.9.w.1.#...Q P.F.*X>X>X>X>X>X>X>X>X>X>X>X>X>X>X>X>X>X>X>X>X>X>X>X>X>X>X>X>X>X>X>X>X>X}.A.P.j...o.9.e.1.#...).P.Y.-X>X>X>X>X>X>X>X>X>X>X>X>X>X>X>X>X",
">X>X>X>X>X>X>X>X>X>X>X>X>X>X>X>X>X>X,X=X5   ~ e.w.f   e >X>X>X>X>X>X>X>X>X>X>X>X>X>X>X>X>X>X>X>X>X>X>X>X>X>X>X>X>X>X>X>X>X>X>X>X>X>X>X<XZ.  % 8.e...$   E.<X,X,X>X>X>X>X>X>X>X>X>X>X>X>X>X>X>X>X>X>X>X>X>X>X>X>X>X>X>X>X>X>X>X>X>X>X>X>XM.  2 9.t.{ o   ].1X>X>X,X>X>X>X>X>X>X>X>X>X>X>X>X>X>X>X",
">X>X>X>X>X>X>X>X>X>X>X>X>X>X>X>X>X>X>X$Xr 6 &.e.w.b 6 N =X>X;X>X>X>X>X>X>X>X>X>X>X>X>X>X>X>X>X>X>X>X>X>X>X>X>X>X>X>X>X>X>X>X>X>X>X>X>X>XF.  u 8.e.%.w : W.>X>X,X>X>X>X>X>X>X>X>X>X>X>X>X>X>X>X>X>X>X>X>X>X>X>X>X>X>X>X>X>X>X>X>X>X>X>X>XB.  v q.e.@.w + '.>X>X>X>X>X>X>X>X>X>X>X>X>X>X>X>X>X>X>X",
">X>X>X>X>X>X>X>X>X>X>X>X>X>X>X>X>X>X>X>X@X$X~.f z oX$X@X>X>X>X>X>X>X>X>X>X>X>X>X>X>X>X>X>X>X>X>X>X>X>X>X>X>X>X>X>X>X>X>X>X>X>X>X>X>X>X>X@X|.OXn f ^.$X@X=X>X;X>X>X>X>X>X>X>X>X>X>X>X>X>X>X>X>X>X>X>X>X>X>X>X>X>X>X>X>X>X>X>X>X>X>X>X>X>X$X+X.XU f (.$X@X=X>X>X>X>X>X>X>X>X>X>X>X>X>X>X>X>X>X>X>X",
">X>X>X>X>X>X>X>X>X>X>X>X>X>X>X>X>X>X>X>X>X,X].    |.>X>X>X>X>X>X>X>X>X>X>X>X>X>X>X>X>X>X>X>X>X>X>X>X>X>X>X>X>X>X>X>X>X>X>X>X>X>X>X>X>X>X>X>X4X3   Z.<X>X>X>X>X>X>X>X>X>X>X>X>X>X>X>X>X>X>X>X>X>X>X>X>X>X>X>X>X>X>X>X>X>X>X>X>X>X>X>X>X>X>X,X=XM   P.>X>X>X>X>X>X>X>X>X>X>X>X>X>X>X>X>X>X>X>X>X>X",
">X>X>X>X>X>X>X>X>X>X>X>X>X>X>X>X>X>X>X>X>X>X[.N C  X>X>X>X>X>X>X>X>X>X>X>X>X>X>X>X>X>X>X>X>X>X>X>X>X>X>X>X>X>X>X>X>X>X>X>X>X>X>X>X>X>X>X,X,X4XS w Y.>X>X>X>X>X>X>X>X>X>X>X>X>X>X>X>X>X>X>X>X>X>X>X>X>X>X>X>X>X>X>X>X>X>X>X>X>X>X>X>X>X>X>X,X>XG 9 R.>X;X>X>X>X>X>X>X>X>X>X>X>X>X>X>X>X>X>X>X>X>X",
">X>X>X>X>X>X>X>X>X>X>X>X>X>X>X>X>X>X>X>X>X>X>X;X=X>X>X>X>X>X>X>X>X>X>X>X>X>X>X>X>X>X>X>X>X>X>X>X>X>X>X>X>X>X>X>X>X>X>X>X>X>X>X>X>X>X>X>X>X>X;X;X;X,X>X>X>X>X>X>X>X>X>X>X>X>X>X>X>X>X>X>X>X>X>X>X>X>X>X>X>X>X>X>X>X>X>X>X>X>X>X>X>X>X>X>X>X>X>X;X>X>X>X>X>X>X>X>X>X>X>X>X>X>X>X>X>X>X>X>X>X>X>X>X",
">X>X>X>X>X>X>X>X>X>X>X>X>X>X>X>X>X>X>X>X>X>X>X>X>X>X>X>X>X>X>X>X>X>X>X>X>X>X>X>X>X>X>X>X>X>X>X>X>X>X>X>X>X>X>X>X>X>X>X>X>X>X>X>X>X>X>X>X>X>X>X,X>X>X>X>X>X>X>X>X>X>X>X>X>X>X>X>X>X>X>X>X>X>X>X>X>X>X>X>X>X>X>X>X>X>X>X>X>X>X>X>X>X>X>X>X>X>X>X>X>X>X>X>X>X>X>X>X>X>X>X>X>X>X>X>X>X>X>X>X>X>X>X>X",
">X>X>X>X>X>X>X>X>X>X>X>X>X>X>X>X>X>X>X>X>X>X>X>X>X>X>X>X>X>X>X>X>X>X>X>X>X>X>X>X>X>X>X>X>X>X>X>X>X>X>X>X>X>X>X>X>X>X>X>X>X>X>X>X>X>X>X>X>X>X>X>X>X>X>X>X>X>X>X>X>X>X>X>X>X>X>X>X>X>X>X>X>X>X>X>X>X>X>X>X>X>X>X>X>X>X>X>X>X>X>X>X>X>X>X>X>X>X>X>X>X>X>X>X>X>X>X>X>X>X>X>X>X>X>X>X>X>X>X>X>X>X>X>X",
">X>X>X>X>X>X>X>X>X>X>X>X>X>X>X>X>X>X>X>X>X>X>X>X>X>X>X>X>X>X>X>X>X>X>X>X>X>X>X>X>X>X>X>X>X>X>X>X>X>X>X>X>X>X>X>X>X>X>X>X>X>X>X>X>X>X>X>X>X>X>X>X>X>X>X>X>X>X>X>X>X>X>X>X>X>X>X>X>X>X>X>X>X>X>X>X>X>X>X>X>X>X>X>X>X>X>X>X>X>X>X>X>X>X>X>X>X>X>X>X>X>X>X>X>X>X>X>X>X>X>X>X>X>X>X>X>X>X>X>X>X>X>X>X",
">X>X>X>X>X>X>X>X>X>X>X>X>X>X>X>X>X>X>X>X>X>X>X>X>X>X>X>X>X>X>X>X>X>X>X>X>X>X>X>X>X>X>X>X>X>X>X>X>X>X>X>X>X>X>X>X>X>X>X>X>X>X>X>X>X>X>X>X>X>X>X>X>X>X>X>X>X>X>X>X>X>X>X>X>X>X>X>X>X>X>X>X>X>X>X>X>X>X>X>X>X>X>X>X>X>X>X>X>X>X>X>X>X>X>X>X>X>X>X>X>X>X>X>X>X>X>X>X>X>X>X>X>X>X>X>X>X>X>X>X>X>X>X>X"
};
